<svg xmlns="http://www.w3.org/2000/svg"  >
<symbol id="van">
<path fill="#101828" d="M2.282 1.575H13.14a.346.346 0 0 0 .243-.099L14.426.46A1.615 1.615 0 0 1 15.561 0h16.465a2.3 2.3 0 0 1 1.904.994l1.973 2.888c.28.41.306.934.068 1.368a1.37 1.37 0 0 1-1.205.704H26.28v.837h4.346a2.87 2.87 0 0 1 2.64 1.702l2.545 5.818 2.23.87c1.19.465 1.959 1.573 1.959 2.824v5.388c0 .804-.67 1.458-1.494 1.458h-2.594C35.611 26.634 34.02 28 32.106 28S28.6 26.634 28.3 24.85H14.122C13.82 26.635 12.228 28 10.315 28c-1.912 0-3.504-1.366-3.806-3.15h-5.18C.595 24.85 0 24.27 0 23.556V3.8c0-1.228 1.023-2.226 2.282-2.226ZM32.106 26.77c1.432 0 2.598-1.137 2.598-2.535 0-1.397-1.166-2.534-2.598-2.534-1.433 0-2.598 1.137-2.598 2.534 0 1.398 1.165 2.535 2.598 2.535Zm-5.826-3.15h2.019l.017-.091.012-.062c.01-.048.022-.096.034-.144l.008-.03c.015-.057.031-.113.05-.17.004-.016.01-.032.016-.049a4.18 4.18 0 0 1 .065-.18l.041-.1.03-.066.043-.095.033-.066.048-.09.035-.065.052-.088.038-.062.058-.088.039-.057c.022-.031.044-.062.068-.092l.035-.048a4.466 4.466 0 0 1 .225-.266l.037-.038.084-.087.05-.046a3.456 3.456 0 0 1 .211-.188l.058-.045a4.16 4.16 0 0 1 .141-.107l.085-.059.06-.04c.03-.02.06-.038.091-.057l.06-.036c.033-.02.067-.038.101-.057l.052-.03a4.71 4.71 0 0 1 .148-.073l.011-.005c.054-.026.108-.05.163-.072.017-.008.036-.014.053-.021l.114-.044.065-.023a4.02 4.02 0 0 1 .458-.126l.076-.016a3.637 3.637 0 0 1 .294-.044l.072-.008.125-.01c.02 0 .041-.003.062-.003a3.497 3.497 0 0 1 .378 0c.02 0 .04.002.062.004.041.002.083.005.125.01.024.001.048.005.072.007a3.454 3.454 0 0 1 .37.06 3.79 3.79 0 0 1 .458.126l.065.023.114.044.053.02c.055.023.11.047.163.073l.011.005c.05.024.099.048.147.074l.052.029c.035.018.069.037.102.057l.06.036.09.057.061.04.085.06a2.876 2.876 0 0 1 .141.106l.058.045a5.09 5.09 0 0 1 .211.188l.05.046.084.087.037.038c.04.042.078.086.115.13l.015.018c.032.039.064.077.095.118l.035.048.068.092.039.057.058.088.038.062.051.088.036.065.048.09.033.066c.015.032.03.063.043.095l.03.065a2.467 2.467 0 0 1 .065.164l.041.117.017.05c.017.056.034.112.05.17l.007.03c.012.047.023.095.033.143l.013.062.017.091h2.593a.23.23 0 0 0 .233-.227v-2.578h-.984v-1.23h.984v-1.58c0-.745-.458-1.405-1.167-1.682l-2.36-.92H26.28v8.217Zm0-9.448h8.1l-2.273-5.197a1.61 1.61 0 0 0-1.481-.954H26.28v6.151ZM10.315 26.77c1.433 0 2.598-1.137 2.598-2.535 0-1.397-1.165-2.534-2.598-2.534a1.95 1.95 0 0 0-.133.004c-1.194.059-2.177.908-2.412 2.02a2.606 2.606 0 0 0-.049.38 2.24 2.24 0 0 0-.003.13c0 1.398 1.165 2.535 2.597 2.535Zm-9.054-7.185h.984v1.23H1.26v2.74c0 .036.03.065.067.065h5.18l.018-.09c.004-.021.007-.043.012-.064.01-.047.02-.094.033-.14l.008-.033c.015-.057.032-.113.05-.17l.017-.05.04-.116.025-.063a5.547 5.547 0 0 1 .07-.167l.043-.093c.01-.023.022-.045.034-.067l.046-.09.037-.065a4.985 4.985 0 0 1 .186-.295l.067-.091.037-.05c.03-.039.06-.077.093-.115l.016-.02c.038-.044.076-.088.115-.13l.038-.04.084-.085.05-.047.077-.073.055-.047.079-.066.058-.047a4.97 4.97 0 0 1 .14-.106c.028-.02.056-.04.085-.058l.06-.041.09-.057.06-.036.102-.057.053-.03a3.95 3.95 0 0 1 .146-.072c.004-.002.008-.005.013-.006a2.58 2.58 0 0 1 .162-.072l.054-.021.113-.044.066-.023a3.45 3.45 0 0 1 .105-.034 3.946 3.946 0 0 1 .353-.091l.075-.017a3.62 3.62 0 0 1 .294-.044l.072-.008.126-.01c.02 0 .04-.003.061-.003a3.5 3.5 0 0 1 .378 0c.021 0 .041.002.062.004.042.002.084.005.125.01.024.001.048.005.072.007a3.526 3.526 0 0 1 .188.026l.106.018.076.016a3.79 3.79 0 0 1 .281.07l.072.022c.035.01.07.022.104.034l.066.023.114.044.053.02a3.966 3.966 0 0 1 .321.152l.053.029.102.057.06.036.09.057.061.04.084.06a2.428 2.428 0 0 1 .14.105l.059.047c.027.021.053.044.079.066l.054.047.079.074.049.046.084.086.037.04a4.111 4.111 0 0 1 .225.265l.036.048c.023.03.046.061.067.092l.039.058a3.468 3.468 0 0 1 .148.237l.036.065.047.09.033.066.044.095.029.065c.015.034.028.068.041.102l.024.062c.015.039.028.078.041.118l.017.048c.018.056.034.114.05.17l.006.028c.013.048.024.097.035.146l.011.06.019.093h10.896V5.34c0-.34.282-.616.63-.616h9.117c.015 0 .063 0 .093-.055a.092.092 0 0 0-.006-.105L32.88 1.677a1.033 1.033 0 0 0-.855-.447H15.56a.346.346 0 0 0-.243.099l-1.043 1.017a1.615 1.615 0 0 1-1.135.459H2.282a1.01 1.01 0 0 0-1.021.996v15.784Z"/><path fill="#101828" d="M17.601 6.298h3.989c.805 0 1.461.64 1.461 1.426v13.165c0 .34-.282.615-.63.615h-5.65a.623.623 0 0 1-.63-.615V7.724c0-.787.654-1.426 1.46-1.426Zm-.2 13.975h4.389V13.04H17.4v7.233Zm0-8.463h4.389V7.723a.198.198 0 0 0-.2-.196H17.6c-.11 0-.2.088-.2.196v4.085h.001ZM4.844 6.298h7.712c.892 0 1.617.708 1.617 1.577v3.588c0 .87-.726 1.577-1.617 1.577H4.843c-.891 0-1.616-.707-1.616-1.577V7.875c0-.87.725-1.577 1.617-1.577Zm-.356 5.165c0 .19.16.347.356.347h7.712a.352.352 0 0 0 .356-.347V7.875a.352.352 0 0 0-.356-.347H4.843a.352.352 0 0 0-.355.347v3.588Z"/>
</symbol>
<symbol id="ful_van">
<path fill="#101828" d="M2.282 1.575H13.14a.346.346 0 0 0 .243-.099L14.426.46A1.615 1.615 0 0 1 15.561 0h16.465a2.3 2.3 0 0 1 1.904.994l1.973 2.888c.28.41.306.934.068 1.368a1.37 1.37 0 0 1-1.205.704H26.28v.837h4.346a2.87 2.87 0 0 1 2.64 1.702l2.545 5.818 2.23.87c1.19.465 1.959 1.573 1.959 2.824v5.388c0 .804-.67 1.458-1.494 1.458h-2.594C35.611 26.634 34.02 28 32.106 28S28.6 26.634 28.3 24.85H14.122C13.82 26.635 12.228 28 10.315 28c-1.912 0-3.504-1.366-3.806-3.15h-5.18C.595 24.85 0 24.27 0 23.556V3.8c0-1.228 1.023-2.226 2.282-2.226ZM32.106 26.77c1.432 0 2.598-1.137 2.598-2.535 0-1.397-1.166-2.534-2.598-2.534-1.433 0-2.598 1.137-2.598 2.534 0 1.398 1.165 2.535 2.598 2.535Zm-5.826-3.15h2.019l.017-.091.012-.062c.01-.048.022-.096.034-.144l.008-.03c.015-.057.031-.113.05-.17.004-.016.01-.032.016-.049a4.18 4.18 0 0 1 .065-.18l.041-.1.03-.066.043-.095.033-.066.048-.09.035-.065.052-.088.038-.062.058-.088.039-.057c.022-.031.044-.062.068-.092l.035-.048a4.466 4.466 0 0 1 .225-.266l.037-.038.084-.087.05-.046a3.456 3.456 0 0 1 .211-.188l.058-.045a4.16 4.16 0 0 1 .141-.107l.085-.059.06-.04c.03-.02.06-.038.091-.057l.06-.036c.033-.02.067-.038.101-.057l.052-.03a4.71 4.71 0 0 1 .148-.073l.011-.005c.054-.026.108-.05.163-.072.017-.008.036-.014.053-.021l.114-.044.065-.023a4.02 4.02 0 0 1 .458-.126l.076-.016a3.637 3.637 0 0 1 .294-.044l.072-.008.125-.01c.02 0 .041-.003.062-.003a3.497 3.497 0 0 1 .378 0c.02 0 .04.002.062.004.041.002.083.005.125.01.024.001.048.005.072.007a3.454 3.454 0 0 1 .37.06 3.79 3.79 0 0 1 .458.126l.065.023.114.044.053.02c.055.023.11.047.163.073l.011.005c.05.024.099.048.147.074l.052.029c.035.018.069.037.102.057l.06.036.09.057.061.04.085.06a2.876 2.876 0 0 1 .141.106l.058.045a5.09 5.09 0 0 1 .211.188l.05.046.084.087.037.038c.04.042.078.086.115.13l.015.018c.032.039.064.077.095.118l.035.048.068.092.039.057.058.088.038.062.051.088.036.065.048.09.033.066c.015.032.03.063.043.095l.03.065a2.467 2.467 0 0 1 .065.164l.041.117.017.05c.017.056.034.112.05.17l.007.03c.012.047.023.095.033.143l.013.062.017.091h2.593a.23.23 0 0 0 .233-.227v-2.578h-.984v-1.23h.984v-1.58c0-.745-.458-1.405-1.167-1.682l-2.36-.92H26.28v8.217Zm0-9.448h8.1l-2.273-5.197a1.61 1.61 0 0 0-1.481-.954H26.28v6.151ZM10.315 26.77c1.433 0 2.598-1.137 2.598-2.535 0-1.397-1.165-2.534-2.598-2.534-.045 0-.089.001-.133.004-1.194.059-2.177.908-2.412 2.02a2.606 2.606 0 0 0-.049.38 2.24 2.24 0 0 0-.003.13c0 1.398 1.165 2.535 2.597 2.535Zm-9.054-7.185h.984v1.23H1.26v2.74c0 .036.03.065.067.065h5.18l.018-.09c.004-.021.007-.043.012-.064.01-.047.02-.094.033-.14l.008-.033c.015-.057.032-.113.05-.17l.017-.05.04-.116.025-.063a5.547 5.547 0 0 1 .07-.167l.043-.093c.01-.023.022-.045.034-.067l.046-.09.037-.065a4.985 4.985 0 0 1 .186-.295l.067-.091.037-.05c.03-.039.06-.077.093-.115l.016-.02c.038-.044.076-.088.115-.13l.038-.04.084-.085.05-.047.077-.073.055-.047.079-.066.058-.047a4.97 4.97 0 0 1 .14-.106c.028-.02.056-.04.085-.058l.06-.041.09-.057.06-.036.102-.057.053-.03c.048-.025.097-.049.146-.072.004-.002.008-.005.013-.006.053-.026.108-.05.162-.072l.054-.021.113-.044.066-.023a3.45 3.45 0 0 1 .105-.034 3.946 3.946 0 0 1 .353-.091l.075-.017a3.62 3.62 0 0 1 .294-.044l.072-.008.126-.01c.02 0 .04-.003.061-.003a3.5 3.5 0 0 1 .378 0c.021 0 .041.002.062.004.042.002.084.005.125.01.024.001.048.005.072.007a3.526 3.526 0 0 1 .188.026l.106.018.076.016a3.79 3.79 0 0 1 .281.07l.072.022c.035.01.07.022.104.034l.066.023.114.044.053.02a3.966 3.966 0 0 1 .321.152l.053.029.102.057.06.036.09.057.061.04.084.06a2.428 2.428 0 0 1 .14.105l.059.047c.027.021.053.044.079.066l.054.047.079.074.049.046.084.086.037.04a4.111 4.111 0 0 1 .225.265l.036.048c.023.03.046.061.067.092l.039.058a3.468 3.468 0 0 1 .148.237l.036.065.047.09.033.066.044.095.029.065c.015.034.028.068.041.102l.024.062c.015.039.028.078.041.118l.017.048c.018.056.034.114.05.17l.006.028c.013.048.024.097.035.146l.011.06.019.093h10.896V5.34c0-.34.282-.616.63-.616h9.117c.015 0 .063 0 .093-.055a.092.092 0 0 0-.006-.105l-1.972-2.887a1.033 1.033 0 0 0-.855-.447H15.56a.346.346 0 0 0-.243.099l-1.043 1.017a1.615 1.615 0 0 1-1.135.459H2.282a1.01 1.01 0 0 0-1.021.996v15.784Z"/><path fill="#101828" d="M17.601 6.298h3.989c.805 0 1.461.64 1.461 1.426v13.165c0 .34-.282.615-.63.615h-5.65a.623.623 0 0 1-.63-.615V7.724c0-.787.654-1.426 1.46-1.426Zm-.2 13.975h4.389V13.04H17.4v7.233Zm0-8.463h4.389V7.723a.198.198 0 0 0-.2-.196H17.6c-.11 0-.2.088-.2.196l.001 4.085Z"/>
</symbol>
<symbol id="alvoce">
<path fill="#101828" d="M2.282 1.575H13.14a.346.346 0 0 0 .243-.099L14.426.46A1.615 1.615 0 0 1 15.561 0h16.465a2.3 2.3 0 0 1 1.904.994l1.973 2.888c.28.41.306.934.068 1.368a1.37 1.37 0 0 1-1.205.704H26.28v.837h4.346a2.87 2.87 0 0 1 2.64 1.702l2.545 5.818 2.23.87c1.19.465 1.959 1.573 1.959 2.824v5.388c0 .804-.67 1.458-1.494 1.458h-2.594C35.611 26.634 34.02 28 32.106 28S28.6 26.634 28.3 24.85H14.122C13.82 26.635 12.228 28 10.315 28c-1.912 0-3.504-1.366-3.806-3.15h-5.18C.595 24.85 0 24.27 0 23.556V3.8c0-1.228 1.023-2.226 2.282-2.226ZM32.106 26.77c1.432 0 2.598-1.137 2.598-2.535 0-1.397-1.166-2.534-2.598-2.534-1.433 0-2.598 1.137-2.598 2.534 0 1.398 1.165 2.535 2.598 2.535Zm-5.826-3.15h2.019l.017-.091.012-.062c.01-.048.022-.096.034-.144l.008-.03c.015-.057.031-.113.05-.17.004-.016.01-.032.016-.049a4.18 4.18 0 0 1 .065-.18l.041-.1.03-.066.043-.095.033-.066.048-.09.035-.065.052-.088.038-.062.058-.088.039-.057c.022-.031.044-.062.068-.092l.035-.048a4.466 4.466 0 0 1 .225-.266l.037-.038.084-.087.05-.046a3.456 3.456 0 0 1 .211-.188l.058-.045a4.16 4.16 0 0 1 .141-.107l.085-.059.06-.04c.03-.02.06-.038.091-.057l.06-.036c.033-.02.067-.038.101-.057l.052-.03a4.71 4.71 0 0 1 .148-.073l.011-.005c.054-.026.108-.05.163-.072.017-.008.036-.014.053-.021l.114-.044.065-.023a4.02 4.02 0 0 1 .458-.126l.076-.016a3.637 3.637 0 0 1 .294-.044l.072-.008.125-.01c.02 0 .041-.003.062-.003a3.497 3.497 0 0 1 .378 0c.02 0 .04.002.062.004.041.002.083.005.125.01.024.001.048.005.072.007a3.454 3.454 0 0 1 .37.06 3.79 3.79 0 0 1 .458.126l.065.023.114.044.053.02c.055.023.11.047.163.073l.011.005c.05.024.099.048.147.074l.052.029c.035.018.069.037.102.057l.06.036.09.057.061.04.085.06a2.876 2.876 0 0 1 .141.106l.058.045a5.09 5.09 0 0 1 .211.188l.05.046.084.087.037.038c.04.042.078.086.115.13l.015.018c.032.039.064.077.095.118l.035.048.068.092.039.057.058.088.038.062.051.088.036.065.048.09.033.066c.015.032.03.063.043.095l.03.065a2.467 2.467 0 0 1 .065.164l.041.117.017.05c.017.056.034.112.05.17l.007.03c.012.047.023.095.033.143l.013.062.017.091h2.593a.23.23 0 0 0 .233-.227v-2.578h-.984v-1.23h.984v-1.58c0-.745-.458-1.405-1.167-1.682l-2.36-.92H26.28v8.217Zm0-9.448h8.1l-2.273-5.197a1.61 1.61 0 0 0-1.481-.954H26.28v6.151ZM10.315 26.77c1.433 0 2.598-1.137 2.598-2.535 0-1.397-1.165-2.534-2.598-2.534-.045 0-.089.001-.133.004-1.194.059-2.177.908-2.412 2.02a2.606 2.606 0 0 0-.049.38 2.24 2.24 0 0 0-.003.13c0 1.398 1.165 2.535 2.597 2.535Zm-9.054-7.185h.984v1.23H1.26v2.74c0 .036.03.065.067.065h5.18l.018-.09c.004-.021.007-.043.012-.064.01-.047.02-.094.033-.14l.008-.033c.015-.057.032-.113.05-.17l.017-.05.04-.116.025-.063a5.547 5.547 0 0 1 .07-.167l.043-.093c.01-.023.022-.045.034-.067l.046-.09.037-.065a4.985 4.985 0 0 1 .186-.295l.067-.091.037-.05c.03-.039.06-.077.093-.115l.016-.02c.038-.044.076-.088.115-.13l.038-.04.084-.085.05-.047.077-.073.055-.047.079-.066.058-.047a4.97 4.97 0 0 1 .14-.106c.028-.02.056-.04.085-.058l.06-.041.09-.057.06-.036.102-.057.053-.03c.048-.025.097-.049.146-.072.004-.002.008-.005.013-.006.053-.026.108-.05.162-.072l.054-.021.113-.044.066-.023a3.45 3.45 0 0 1 .105-.034 3.946 3.946 0 0 1 .353-.091l.075-.017a3.62 3.62 0 0 1 .294-.044l.072-.008.126-.01c.02 0 .04-.003.061-.003a3.5 3.5 0 0 1 .378 0c.021 0 .041.002.062.004.042.002.084.005.125.01.024.001.048.005.072.007a3.526 3.526 0 0 1 .188.026l.106.018.076.016a3.79 3.79 0 0 1 .281.07l.072.022c.035.01.07.022.104.034l.066.023.114.044.053.02a3.966 3.966 0 0 1 .321.152l.053.029.102.057.06.036.09.057.061.04.084.06a2.428 2.428 0 0 1 .14.105l.059.047c.027.021.053.044.079.066l.054.047.079.074.049.046.084.086.037.04a4.111 4.111 0 0 1 .225.265l.036.048c.023.03.046.061.067.092l.039.058a3.468 3.468 0 0 1 .148.237l.036.065.047.09.033.066.044.095.029.065c.015.034.028.068.041.102l.024.062c.015.039.028.078.041.118l.017.048c.018.056.034.114.05.17l.006.028c.013.048.024.097.035.146l.011.06.019.093h10.896V5.34c0-.34.282-.616.63-.616h9.117c.015 0 .063 0 .093-.055a.092.092 0 0 0-.006-.105l-1.972-2.887a1.033 1.033 0 0 0-.855-.447H15.56a.346.346 0 0 0-.243.099l-1.043 1.017a1.615 1.615 0 0 1-1.135.459H2.282a1.01 1.01 0 0 0-1.021.996v15.784Z"/><path fill="#101828" d="M4.844 6.298h7.712c.892 0 1.617.708 1.617 1.577v3.588c0 .87-.726 1.577-1.617 1.577H4.843c-.891 0-1.616-.707-1.616-1.577V7.875c0-.87.725-1.577 1.617-1.577Zm-.356 5.165c0 .19.16.347.356.347h7.712a.352.352 0 0 0 .356-.347V7.875c0-.191-.16-.347-.356-.347H4.843a.352.352 0 0 0-.355.347v3.588Z"/>
</symbol>
<symbol id="location"  fill="none">
<g stroke="#101828" stroke-linecap="round" stroke-linejoin="round" stroke-opacity=".6" stroke-width="1.5" clip-path="url(#a)"><path d="M16.5 8.333c0 5.834-7.5 10.834-7.5 10.834s-7.5-5-7.5-10.834a7.5 7.5 0 0 1 15 0Z"/><path d="M9 10.833a2.5 2.5 0 1 0 0-5 2.5 2.5 0 0 0 0 5Z"/></g><defs><clipPath id="a"><path fill="#fff" d="M0 0h18v20H0z"/></clipPath></defs>
</symbol>
<symbol id="TV" fill="none">
<path stroke="#101828" stroke-linecap="round" stroke-linejoin="round" stroke-width="1.8" d="M21 25H5c-2.216 0-4-1.784-4-4V11c0-2.216 1.784-4 4-4h16c2.216 0 4 1.784 4 4v10c0 2.216-1.784 4-4 4ZM9 29h8M13 7l6-6M13 7 7 1"/>

</symbol>
<symbol id="shover" fill="none" >
<path stroke="#101828" stroke-linecap="round" stroke-linejoin="round" stroke-width="2" d="m1.333 1.333 3.334 3.334m9.333 0A6.6 6.6 0 0 0 4.667 14M16 2.667 2.667 16m12 2.667v.013m-5.334-1.347v.014m4-4.014v.014m4-4.014v.014m-6.666 13.32v.013m8-8.013v.013m4-4.013v.013"/>
</symbol>
<symbol id="kitchen">
<path stroke="#101828" stroke-linecap="round" stroke-linejoin="round" stroke-width="1.5" d="M12.833 11.5v-10c-4.013 3.828-4.185 6.932-4.166 10h4.166Zm0 0v5H12V14M3.667 2.333V16.5m-2.5-14.167v2.5a2.5 2.5 0 1 0 5 0v-2.5"/>
</symbol>
<symbol id="trans" fill="none">
<path stroke="#101828" stroke-linecap="round" stroke-linejoin="round" stroke-width="1.5" d="M13.167 8.167h1.25a1.25 1.25 0 0 0 0-2.5h-1.25v4.166m0 3.334V16.5H14a1.666 1.666 0 1 0 0-3.333h-.833ZM1.5 3.167a1.667 1.667 0 1 0 3.333 0 1.667 1.667 0 0 0-3.333 0Z"/><path stroke="#101828" stroke-linecap="round" stroke-linejoin="round" stroke-width="1.5" d="M3.167 4.833v2.5A.833.833 0 0 0 4 8.167h2.5m0 0V14a.833.833 0 0 0 .833.833h2.5M6.5 8.167h3.333"/>
</symbol>
<symbol id="adult" fill="none">
<path fill="#101828" d="M5.667 12.083h-2.75c-.167 0-.25-.083-.334-.166-.083-.084-.166-.25-.083-.417.5-1.417 1.75-2.25 3.167-2.25 1.75 0 3.166-1.5 3.166-3.25S7.417 2.583 5.667 2.583 2.5 4.083 2.5 5.917c0 .833.333 1.666.833 2.25-1.083.583-1.916 1.5-2.416 2.75a2.3 2.3 0 0 0 .333 1.916c.417.584 1 .917 1.667.917h2.75c.5 0 .833-.333.833-.833 0-.5-.333-.834-.833-.834Zm-1.5-6.166c0-.917.666-1.584 1.5-1.584.833 0 1.5.75 1.5 1.584 0 .916-.667 1.583-1.5 1.583-.834 0-1.5-.75-1.5-1.583Z"/><path fill="#101828" d="M19.083 10.417A6.244 6.244 0 0 0 16 7c.75-.667 1.167-1.667 1.167-2.833C17.167 2 15.5.25 13.5.25c-2 0-3.667 1.75-3.667 3.917C9.833 5.25 10.25 6.25 11 7a6.244 6.244 0 0 0-3.083 3.417c-.417.75-.25 1.583.166 2.25.417.666 1.167 1 1.917 1h6.917c.75 0 1.5-.417 1.916-1 .5-.667.584-1.5.25-2.25ZM11.417 4.25c0-1.25.916-2.25 2-2.25 1.083 0 2 1 2 2.25s-.917 2.25-2 2.25c-1.084 0-2-1.083-2-2.25Zm6 7.5c-.084.083-.25.333-.5.333H10c-.333 0-.5-.25-.5-.333a.711.711 0 0 1-.083-.75c.666-1.75 2.333-2.917 4.083-2.917S16.917 9.25 17.583 11c.084.333-.083.667-.166.75Z"/>
</symbol>
<symbol id="petrol" fill="none">
<path fill="#101828" d="m13.475 4.025.008-.008-3.1-3.1L9.5 1.8l1.758 1.758a2.077 2.077 0 0 0-.731 3.415 2.083 2.083 0 0 0 2.306.435v6.009a.833.833 0 0 1-1.666 0v-3.75A1.667 1.667 0 0 0 9.5 8h-.833V2.167A1.667 1.667 0 0 0 7 .5H2A1.667 1.667 0 0 0 .333 2.167V15.5h8.334V9.25h1.25v4.167a2.083 2.083 0 0 0 4.166 0V5.5c0-.575-.233-1.1-.608-1.475ZM7 9.25v4.583H2V8h5v1.25Zm0-2.917H2V2.167h5v4.166Zm5 0a.833.833 0 1 1 0-1.666.833.833 0 0 1 0 1.666Z"/>
</symbol>
<symbol id="bed" fill="none">
<path stroke="#101828" stroke-linecap="round" stroke-linejoin="round" stroke-width="1.4" d="M1.875 16.25v-4.375a2.507 2.507 0 0 1 2.5-2.5h11.25a2.507 2.507 0 0 1 2.5 2.5v4.375M15 9.375H3.75V5.312A1.567 1.567 0 0 1 5.313 3.75h9.375a1.567 1.567 0 0 1 1.562 1.563v4.062H15Z"/><path stroke="#101828" stroke-linecap="round" stroke-linejoin="round" stroke-width="1.4" d="M1.875 16.25v-.313A.94.94 0 0 1 2.813 15h14.374a.94.94 0 0 1 .938.938v.312M4.375 9.375V8.75a1.254 1.254 0 0 1 1.25-1.25H8.75A1.254 1.254 0 0 1 10 8.75m0 0v.625m0-.625a1.253 1.253 0 0 1 1.25-1.25h3.125a1.254 1.254 0 0 1 1.25 1.25v.625"/>
</symbol>
<symbol id="conduk" fill="none">
<path stroke="#101828" stroke-linecap="round" stroke-linejoin="round" stroke-width="1.5" d="M17.857.714H2.143A1.429 1.429 0 0 0 .714 2.143v7.143a1.429 1.429 0 0 0 1.429 1.428h15.714a1.429 1.429 0 0 0 1.429-1.428V2.143A1.429 1.429 0 0 0 17.857.714Z"/><path stroke="#101828" stroke-linecap="round" stroke-linejoin="round" stroke-width="1.5" d="M15.714 10.714V7.857a1.429 1.429 0 0 0-1.428-1.428H5.714a1.429 1.429 0 0 0-1.428 1.428v2.857m-.715 7.143h.143a2 2 0 0 0 2-2v-1.571m10.714 3.571h-.142a2 2 0 0 1-2-2v-1.571m-4.286 5v-5"/>
</symbol>
<symbol id="CD" fill="none">
<path stroke="#101828" stroke-width="1.5" d="M9 16.5a7.5 7.5 0 1 0 0-15 7.5 7.5 0 0 0 0 15Z"/><path stroke="#101828" stroke-linecap="round" stroke-width="1.5" d="M4.417 9A4.583 4.583 0 0 1 9 4.417"/><path stroke="#101828" stroke-width="1.5" d="M9 11.083a2.083 2.083 0 1 0 0-4.166 2.083 2.083 0 0 0 0 4.166Z"/>
</symbol>
<symbol id="radio" fill="none">
<path stroke="#101828" stroke-width="1.3" d="M.667 10.667c0-3.143 0-4.715.976-5.69C2.62 4 4.191 4 7.333 4h3.333c3.143 0 4.715 0 5.69.977.977.975.977 2.547.977 5.69 0 3.142 0 4.714-.976 5.69s-2.548.976-5.69.976H7.332c-3.142 0-4.714 0-5.69-.976s-.976-2.548-.976-5.69Z"/><path stroke="#101828" stroke-width="1.3" d="M3.167 8.167A1.667 1.667 0 0 1 4.832 6.5h8.334a1.667 1.667 0 1 1 0 3.333H4.832a1.667 1.667 0 0 1-1.667-1.666Zm3.333 5a1.25 1.25 0 1 1-2.5 0 1.25 1.25 0 0 1 2.5 0Z"/><path stroke="#101828" stroke-linecap="round" stroke-width="1.3" d="M11.5 8.583v1.25m-1.667 3.334H14M4.416 4 11.5.667"/>
</symbol>
<symbol id="hob" fill="none">
<path stroke="#101828" stroke-width="1.5" d="M7.5 1.167h10a.833.833 0 0 1 .833.833v10.833a.833.833 0 0 1-.833.834h-10m0-12.5h-5A.833.833 0 0 0 1.667 2v10.833a.833.833 0 0 0 .833.834h5m0-12.5v12.5"/><path stroke="#101828" stroke-linecap="round" stroke-linejoin="round" stroke-width="1.5" d="M4.583 4.083V5.75m10.833-2.083-5 7.083"/><path fill="#101828" d="M5.417 8.25a.833.833 0 1 0-1.667 0 .833.833 0 0 0 1.667 0ZM5.417 10.75a.833.833 0 1 0-1.667 0 .833.833 0 0 0 1.667 0Z"/>
</symbol>
<symbol id="heart" fill="none">
<path stroke="#101828" stroke-linecap="round" stroke-linejoin="round" stroke-width="2.3" d="M20.84 3.61a5.5 5.5 0 0 0-7.78 0L12 4.67l-1.06-1.06a5.501 5.501 0 1 0-7.78 7.78l1.06 1.06L12 20.23l7.78-7.78 1.06-1.06a5.5 5.5 0 0 0 0-7.78Z"/>
</symbol>
<symbol id="heart-active" fill="none">
<path fill="#E44848" stroke="#E44848" stroke-linecap="round" stroke-linejoin="round" stroke-width="2.3" d="M21.291 3.612a5.5 5.5 0 0 0-7.78 0l-1.06 1.06-1.06-1.06a5.501 5.501 0 0 0-7.78 7.78l1.06 1.06 7.78 7.78 7.78-7.78 1.06-1.06a5.5 5.5 0 0 0 0-7.78Z"/>
</symbol>
<symbol id="AC"  fill="none">
<path d="M9.69 0a4.1 4.1 0 0 0-2.573.906A3.987 3.987 0 0 0 5.71 3.212l-.072.36a.606.606 0 0 0 .256.65.63.63 0 0 0 .968-.41l.074-.357a2.763 2.763 0 0 1 1.086-1.676 2.842 2.842 0 0 1 3.748.367c.468.507.728 1.167.73 1.853a2.75 2.75 0 0 1-.824 1.958 2.836 2.836 0 0 1-1.989.812H.626a.63.63 0 0 0-.442.18.61.61 0 0 0 0 .87A.63.63 0 0 0 .625 8h9.063a4.094 4.094 0 0 0 2.808-1.205A3.97 3.97 0 0 0 13.652 4a3.97 3.97 0 0 0-1.154-2.794A4.094 4.094 0 0 0 9.69 0Zm7.185 5.538a3.15 3.15 0 0 0-2.21.902 3.053 3.053 0 0 0-.915 2.175c0 .164.066.32.183.436a.63.63 0 0 0 .884 0A.61.61 0 0 0 15 8.615c0-.365.11-.722.316-1.025.206-.304.499-.54.841-.68a1.902 1.902 0 0 1 2.044.4 1.82 1.82 0 0 1 .406 2.012 1.853 1.853 0 0 1-.69.828c-.309.203-.671.311-1.042.311H.625a.63.63 0 0 0-.442.18.61.61 0 0 0 0 .871.63.63 0 0 0 .442.18h12.188c.414.001.811.164 1.103.453.293.29.457.68.456 1.089-.001.408-.166.799-.46 1.087a1.595 1.595 0 0 1-2.126.082 1.55 1.55 0 0 1-.538-.928l-.007-.037a.609.609 0 0 0-.248-.413.63.63 0 0 0-.983.37.608.608 0 0 0-.001.244l.006.037c.111.65.452 1.24.963 1.665a2.857 2.857 0 0 0 3.82-.151c.528-.52.826-1.224.827-1.96 0-.57-.175-1.098-.474-1.538h1.724a3.15 3.15 0 0 0 2.21-.9c.586-.578.915-1.36.915-2.177 0-.816-.33-1.598-.915-2.175a3.15 3.15 0 0 0-2.21-.902Z"/><path fill="#101828" d="M9.69 0a4.1 4.1 0 0 0-2.573.906A3.987 3.987 0 0 0 5.71 3.212l-.072.36a.606.606 0 0 0 .256.65.63.63 0 0 0 .968-.41l.074-.357a2.763 2.763 0 0 1 1.086-1.676 2.842 2.842 0 0 1 3.748.367c.468.507.728 1.167.73 1.853a2.75 2.75 0 0 1-.824 1.958 2.836 2.836 0 0 1-1.989.812H.626a.63.63 0 0 0-.442.18.61.61 0 0 0 0 .87A.63.63 0 0 0 .625 8h9.063a4.094 4.094 0 0 0 2.808-1.205A3.97 3.97 0 0 0 13.652 4a3.97 3.97 0 0 0-1.154-2.794A4.094 4.094 0 0 0 9.69 0Zm7.185 5.538a3.15 3.15 0 0 0-2.21.902 3.053 3.053 0 0 0-.915 2.175c0 .164.066.32.183.436a.63.63 0 0 0 .884 0A.61.61 0 0 0 15 8.615c0-.365.11-.722.316-1.025.206-.304.499-.54.841-.68a1.902 1.902 0 0 1 2.044.4 1.82 1.82 0 0 1 .406 2.012 1.853 1.853 0 0 1-.69.828c-.309.203-.671.311-1.042.311H.625a.63.63 0 0 0-.442.18.61.61 0 0 0 0 .871.63.63 0 0 0 .442.18h12.188c.414.001.811.164 1.103.453.293.29.457.68.456 1.089-.001.408-.166.799-.46 1.087a1.595 1.595 0 0 1-2.126.082 1.55 1.55 0 0 1-.538-.928l-.007-.037a.609.609 0 0 0-.248-.413.63.63 0 0 0-.983.37.608.608 0 0 0-.001.244l.006.037c.111.65.452 1.24.963 1.665a2.857 2.857 0 0 0 3.82-.151c.528-.52.826-1.224.827-1.96 0-.57-.175-1.098-.474-1.538h1.724a3.15 3.15 0 0 0 2.21-.9c.586-.578.915-1.36.915-2.177 0-.816-.33-1.598-.915-2.175a3.15 3.15 0 0 0-2.21-.902Z"/><path fill="#101828" d="m9.69 0 .124-4.998L9.75-5H9.69l.001 5ZM5.71 3.212l-4.9-.997-.001.009 4.901.988Zm-.072.36L10.5 4.737l.02-.088.019-.089-4.901-.988Zm1.224.24L1.965 2.805l-.019.093-.015.092 4.931.824Zm.074-.357L2.04 2.445v.001l4.897 1.009Zm5.564.544h5v-.013L12.5 4Zm-2.813 2.77v5h.003l-.002-5ZM0 7.385h-5 5ZM9.688 8v5h.06l.06-.002L9.688 8ZM15 8.615h5-5ZM0 11.077h-5 5Zm12.813.615.01-5h-.01v5Zm-.007 3.077.01-5h-.013l.003 5Zm-1.558-1.294-4.93.834.001.008.002.009 4.927-.851Zm-.007-.037-4.953.681.01.077.013.076 4.93-.835Zm-1.232.201 4.93-.834-.013-.075-.015-.074-4.902.983Zm.006.037-4.93.835.002.008 4.928-.843ZM12.806 16l.002-5h-.003l.001 5Zm2.819-2.77 5 .01v-.01h-5Zm-.474-1.538v-5H5.705l5.312 7.812 4.134-2.812ZM9.69-5a9.1 9.1 0 0 0-5.712 2.015l6.28 7.782A.901.901 0 0 1 9.691 5L9.69-5ZM3.977-2.985a8.987 8.987 0 0 0-3.167 5.2l9.8 1.994c-.05.245-.182.45-.353.588l-6.28-7.782ZM.809 2.224l-.073.359L10.54 4.56l.072-.359L.81 2.224Zm-.034.182a5.606 5.606 0 0 0-.071 2.267l9.852-1.712c.103.59.083 1.194-.056 1.776L.775 2.406ZM.704 4.673a5.61 5.61 0 0 0 .828 2.104l8.376-5.463a4.39 4.39 0 0 1 .648 1.647L.704 4.673Zm.828 2.104a5.62 5.62 0 0 0 1.574 1.595L8.682.07a4.38 4.38 0 0 1 1.226 1.243L1.532 6.777Zm1.574 1.595a5.63 5.63 0 0 0 2.051.85L7.09-.589a4.37 4.37 0 0 1 1.593.66l-5.576 8.3Zm2.051.85c.73.144 1.483.142 2.213-.007L5.375-.584a4.365 4.365 0 0 1 1.714-.005L5.157 9.222Zm2.213-.007a5.63 5.63 0 0 0 2.046-.863L3.786.087a4.37 4.37 0 0 1 1.589-.67L7.37 9.214Zm2.046-.863a5.62 5.62 0 0 0 1.564-1.606L2.568 1.338A4.38 4.38 0 0 1 3.787.087l5.63 8.265Zm1.564-1.606a5.61 5.61 0 0 0 .814-2.11L1.931 2.99a4.39 4.39 0 0 1 .637-1.65l8.412 5.407Zm.78-1.925.074-.358-9.795-2.017-.074.358 9.795 2.017Zm.073-.356a2.237 2.237 0 0 1-.873 1.36l-5.877-8.09a7.763 7.763 0 0 0-3.044 4.71l9.794 2.02Zm-.873 1.36a2.158 2.158 0 0 1-1.479.404l.973-9.953a7.842 7.842 0 0 0-5.371 1.458l5.877 8.09Zm-1.479.404a2.174 2.174 0 0 1-1.386-.694l7.351-6.779a7.826 7.826 0 0 0-4.992-2.48l-.973 9.953Zm-1.386-.694A2.257 2.257 0 0 1 7.5 4.011l10-.025a7.743 7.743 0 0 0-2.053-5.23l-7.352 6.78ZM7.5 4c0-.617.25-1.192.668-1.604l7.017 7.124A7.749 7.749 0 0 0 17.5 4h-10Zm.668-1.604c.415-.409.962-.626 1.517-.626l.005 10a7.836 7.836 0 0 0 5.495-2.25L8.167 2.395Zm1.52-.626H.624v10h9.063v-10Zm-9.063 0a5.63 5.63 0 0 0-3.95 1.618l7.016 7.125A4.37 4.37 0 0 1 .625 11.77v-10Zm-3.95 1.618A5.61 5.61 0 0 0-5 7.385H5a4.39 4.39 0 0 1-1.309 3.127l-7.016-7.125ZM-5 7.385a5.61 5.61 0 0 0 1.675 3.998l7.016-7.126A4.39 4.39 0 0 1 5 7.385H-5Zm1.675 3.998A5.63 5.63 0 0 0 .625 13V3a4.37 4.37 0 0 1 3.066 1.257l-7.016 7.126ZM.625 13h9.063V3H.624v10Zm9.183-.002a9.094 9.094 0 0 0 6.239-2.683l-7.102-7.04A.906.906 0 0 1 9.567 3L9.808 13Zm6.239-2.683a8.97 8.97 0 0 0 2.605-6.312L8.652 4c0-.286.114-.544.293-.725l7.102 7.04Zm2.605-6.312a8.969 8.969 0 0 0-2.601-6.314L8.945 4.725A1.03 1.03 0 0 1 8.652 4l10 .003ZM16.05-2.311a9.094 9.094 0 0 0-6.237-2.687l-.248 9.996a.906.906 0 0 1-.621-.273l7.106-7.036Zm.824 2.85a8.15 8.15 0 0 0-5.718 2.338l7.016 7.126a1.85 1.85 0 0 1-1.298.536v-10Zm-5.718 2.338A8.053 8.053 0 0 0 8.75 8.615h10c0 .536-.217 1.033-.577 1.387l-7.016-7.125ZM8.75 8.615c0 1.515.612 2.951 1.675 3.998l7.016-7.125a4.39 4.39 0 0 1 1.309 3.127h-10Zm1.675 3.998a5.63 5.63 0 0 0 3.95 1.618v-10a4.37 4.37 0 0 1 3.066 1.257l-7.016 7.125Zm3.95 1.618a5.63 5.63 0 0 0 3.95-1.618l-7.016-7.125a4.37 4.37 0 0 1 3.066-1.257v10Zm3.95-1.618A5.611 5.611 0 0 0 20 8.615H10a4.39 4.39 0 0 1 1.309-3.127l7.016 7.125ZM20 8.615c0 .642-.194 1.262-.547 1.782L11.18 4.782A6.826 6.826 0 0 0 10 8.615h10Zm-.547 1.782c-.352.52-.845.913-1.407 1.143l-3.777-9.26a6.868 6.868 0 0 0-3.09 2.502l8.274 5.615Zm-1.407 1.143a3.098 3.098 0 0 1-1.766.171l1.922-9.813a6.902 6.902 0 0 0-3.933.382l3.777 9.26Zm-1.766.171a3.116 3.116 0 0 1-1.587-.838l7.016-7.126a6.884 6.884 0 0 0-3.507-1.85l-1.922 9.814Zm-1.587-.838c-.443-.436-.753-1.001-.88-1.628l9.802-1.98a6.838 6.838 0 0 0-1.906-3.518l-7.016 7.126Zm-.88-1.628a3.18 3.18 0 0 1 .185-1.862l9.218 3.878a6.82 6.82 0 0 0 .399-3.996l-9.802 1.98Zm.185-1.862a3.147 3.147 0 0 1 1.17-1.41l5.497 8.354a6.853 6.853 0 0 0 2.551-3.066l-9.218-3.878Zm1.17-1.41a3.104 3.104 0 0 1 1.707-.511v10a6.896 6.896 0 0 0 3.79-1.134l-5.496-8.355Zm1.707-.511H.625v10h16.25v-10Zm-16.25 0a5.63 5.63 0 0 0-3.95 1.617l7.016 7.126A4.37 4.37 0 0 1 .625 15.46v-10Zm-3.95 1.617A5.61 5.61 0 0 0-5 11.077H5a4.39 4.39 0 0 1-1.309 3.128l-7.016-7.126ZM-5 11.077a5.61 5.61 0 0 0 1.675 3.998l7.016-7.126A4.39 4.39 0 0 1 5 11.077H-5Zm1.675 3.998a5.63 5.63 0 0 0 3.95 1.617v-10A4.37 4.37 0 0 1 3.691 7.95l-7.016 7.126Zm3.95 1.617h12.188v-10H.624v10Zm12.178 0a3.425 3.425 0 0 1-2.402-.991l7.03-7.112a6.575 6.575 0 0 0-4.609-1.897l-.02 10Zm-2.402-.991a3.474 3.474 0 0 1-1.03-2.477l10 .02a6.527 6.527 0 0 0-1.94-4.655l-7.03 7.112Zm-1.03-2.477a3.473 3.473 0 0 1 1.04-2.473l7.002 7.14a6.526 6.526 0 0 0 1.959-4.647l-10-.02Zm1.04-2.473a3.425 3.425 0 0 1 2.405-.982l-.02 10a6.575 6.575 0 0 0 4.617-1.878l-7.002-7.14Zm2.392-.982c.786 0 1.559.273 2.178.787l-6.39 7.693a6.595 6.595 0 0 0 4.219 1.52l-.007-10Zm2.178.787a3.45 3.45 0 0 1 1.193 2.067l-9.853 1.703a6.55 6.55 0 0 0 2.27 3.923l6.39-7.693Zm1.196 2.084-.006-.037-9.86 1.67.007.036 9.86-1.67Zm.018.116a5.61 5.61 0 0 0-.751-2.128l-8.568 5.157a4.391 4.391 0 0 1-.588-1.666l9.907-1.363Zm-.751-2.128a5.62 5.62 0 0 0-1.512-1.648l-5.878 8.09a4.38 4.38 0 0 1-1.178-1.285l8.568-5.157ZM13.932 8.98a5.63 5.63 0 0 0-2.015-.924l-2.299 9.732a4.37 4.37 0 0 1-1.564-.718l5.878-8.09Zm-2.015-.924a5.634 5.634 0 0 0-2.206-.077l1.616 9.868a4.364 4.364 0 0 1-1.709-.06l2.299-9.731ZM9.71 7.979a5.63 5.63 0 0 0-2.071.78l5.295 8.483a4.368 4.368 0 0 1-1.608.605L9.711 7.98Zm-2.071.78a5.62 5.62 0 0 0-1.622 1.535l8.18 5.752c-.34.482-.77.888-1.263 1.196L7.64 8.759Zm-1.622 1.535a5.61 5.61 0 0 0-.9 2.066l9.784 2.07a4.39 4.39 0 0 1-.704 1.616l-8.18-5.752Zm-.9 2.066a5.606 5.606 0 0 0-.012 2.263l9.805-1.967a4.393 4.393 0 0 1-.01 1.773L5.119 12.36Zm-.04 2.114.007.037 9.86-1.67-.006-.036-9.86 1.669Zm.009.045a7.777 7.777 0 0 0 2.692 4.665l6.399-7.685c.395.329.674.799.765 1.334L5.087 14.52Zm2.692 4.665A7.856 7.856 0 0 0 12.807 21l-.002-10c.492 0 .979.17 1.373.499l-6.399 7.685ZM12.804 21a7.84 7.84 0 0 0 5.498-2.244l-7.008-7.133A2.16 2.16 0 0 1 12.807 11l-.004 10Zm5.498-2.244a7.753 7.753 0 0 0 2.323-5.516l-10-.018c.001-.615.25-1.189.668-1.6l7.009 7.134Zm2.323-5.525c0-1.61-.498-3.113-1.339-4.35l-8.27 5.623a2.274 2.274 0 0 1-.391-1.273h10Zm-5.474 3.461h1.724v-10h-1.724v10Zm1.724 0a8.15 8.15 0 0 0 5.718-2.338l-7.016-7.126a1.85 1.85 0 0 1 1.298-.536v10Zm5.718-2.338A8.053 8.053 0 0 0 25 8.615H15c0-.535.217-1.032.577-1.387l7.016 7.126ZM25 8.615c0-2.167-.875-4.23-2.407-5.738l-7.016 7.125A1.947 1.947 0 0 1 15 8.615h10Zm-2.407-5.738A8.15 8.15 0 0 0 16.875.538v10a1.85 1.85 0 0 1-1.298-.536l7.016-7.125Z"" "/>
</symbol>

</svg>



